<?xml version="1.0" encoding="utf-8"?>
<!-- Generator: Adobe Illustrator 22.0.1, SVG Export Plug-In . SVG Version: 6.00 Build 0)  -->
<svg version="1.1" id="Layer_1" xmlns="http://www.w3.org/2000/svg" xmlns:xlink="http://www.w3.org/1999/xlink" x="0px" y="0px"
	 viewBox="0 0 52 49.6" style="enable-background:new 0 0 52 49.6;" xml:space="preserve">
<style type="text/css">
	.st0{fill:#FFFFFF;}
</style>
<path class="st0" d="M12.5,48.1c-1,0-1.9-0.5-2.5-1.3l0,0c0-0.2-0.3-0.3-0.3-0.5c-0.5-0.8-0.9-1.7-1.1-2.5c-0.5-0.5-0.8-1.2-0.8-1.9
	c-0.2-7-0.3-14-0.2-21c-0.1-2.9-0.2-5.7-0.4-8.4c0-0.8,0.2-1.5,0.6-2c0-0.1,0-0.3,0-0.4C7.7,7.9,7.7,5.8,8,3.6C8.1,2,9.6,0.8,11.2,1
	c1.3,0.1,2.5,0.1,3.8,0.1c1.9-0.1,3.8-0.2,5.7-0.2c0.8,0,1.5-0.1,2.3-0.1c4-0.1,8.7,0,13.1,1.5c5.2,1.8,8.8,5.4,9.7,9.6
	c0.4,1.7,0.3,3.4,0.1,4.6c-0.5,4.2-1.8,7.4-4.1,9.8c-4.3,4.5-11.2,5.5-17.3,6c-0.5,0-1,0.1-1.5,0.1c-3,0.5-5.9,0.7-8.7,0.6
	c0.2,3.3,0.5,6.5,0.9,9.8c0.2,1,0.3,1.9,0.5,2.9L15,45.9c-0.2,0.9-0.4,1.7-1.4,2C13.2,48.1,12.8,48.1,12.5,48.1z M13.7,14.5
	c0.6,3.6,0.5,7.2,0.4,10.7c0,0.6,0,1.1,0,1.7c2.7,0,5.4-0.2,8.2-0.3c3.7-0.6,7.5-1.7,11.3-3.3c1.6-0.7,3.3-1.5,4.4-2.5
	c1.1-1.1,1.7-2.7,1.8-4.9c0.1-1.4,0-2.4-0.4-3.1c-0.5-0.9-1.5-1.8-3-2.6c-3.2-1.8-7.2-2.8-12-3.2c-1.1-0.1-2.3-0.1-3.4-0.1
	c-0.3,0-0.5,0-0.8,0c-1.6,0.1-3.2,0.2-4.8,0.2c-0.4,0-0.9,0.1-1.3,0.1l-0.1,4.2c0,0.3-0.1,0.6-0.2,0.9C13.7,13,13.7,13.8,13.7,14.5z
	"/>
</svg>
